<svg viewBox="0 0 230 43" xmlns="http://www.w3.org/2000/svg" data-logo="logo">
        <g transform="translate(0, 1) rotate(0)" id="logogram" style="opacity: 1;"><path fill="url(#paint0_linear_5557_2010)" d="M50.0552 20.81C50.0552 15.5057 47.948 10.4186 44.1973 6.66785C40.4465 2.91711 35.3594 0.809968 30.0551 0.809967C24.7508 0.809966 19.6637 2.91711 15.913 6.66785C12.1622 10.4186 10.0551 15.5057 10.0551 20.81H16.3052C18.3763 20.81 19.9915 19.0744 20.7501 17.1472C21.2481 15.8819 22.0039 14.7191 22.984 13.7389C24.8594 11.8636 27.403 10.81 30.0551 10.81C32.7073 10.81 35.2509 11.8636 37.1263 13.7389C39.0016 15.6143 40.0551 18.1579 40.0551 20.81H50.0552Z"></path><path fill="#FFFB80" d="M38.5338 28.4637C39.539 26.0371 40.0563 23.4364 40.0563 20.81H50.0553C50.0553 31.8557 41.1009 40.81 30.0552 40.81C28.3254 40.81 26.6468 40.5904 25.046 40.1776C25.9517 39.9442 26.842 39.647 27.7099 39.2876C30.1364 38.2825 32.3412 36.8094 34.1984 34.9522C36.0556 33.095 37.5289 30.8902 38.5338 28.4637Z"></path><path fill="url(#paint1_linear_5557_2010)" d="M0.0561523 20.8099C0.056152 23.4364 0.573468 26.0371 1.57856 28.4636C2.58366 30.8902 4.05685 33.0949 5.91403 34.9521C7.7712 36.8092 9.97599 38.2825 12.4025 39.2876C14.829 40.2927 17.4297 40.8099 20.0562 40.8099C22.6826 40.8099 25.2833 40.2927 27.7098 39.2876C30.1364 38.2825 32.3412 36.8092 34.1984 34.9521C36.0555 33.0949 37.5287 30.8902 38.5338 28.4636C39.5389 26.0371 40.0563 23.4364 40.0563 20.8099H33.8062C31.7351 20.8099 30.1199 22.5455 29.3613 24.4726C29.3397 24.5275 29.3176 24.5822 29.295 24.6368C28.7924 25.85 28.0559 26.9525 27.1272 27.881C26.1987 28.8095 25.0962 29.5462 23.883 30.0488C22.6698 30.5513 21.3695 30.81 20.0562 30.81C18.743 30.81 17.4426 30.5513 16.2294 30.0488C15.0161 29.5462 13.9137 28.8095 12.9851 27.881C12.0565 26.9525 11.3199 25.85 10.8174 24.6368C10.3148 23.4235 10.0562 22.1231 10.0562 20.8099H0.0561523Z"></path><path fill="#00AAFF" d="M0.0579987 20.81C0.0579987 9.76426 9.0123 0.809967 20.058 0.809967C21.7874 0.809967 23.4655 1.02946 25.0661 1.44213C21.6316 2.32688 18.4634 4.1174 15.9128 6.66786C12.1621 10.4186 10.055 15.5057 10.055 20.81H0.0579987Z"></path></g>
        <g transform="translate(57, 1.5)" id="logotype" style="opacity: 1;"><path d="M19.48 33.34L19.48 33.34Q16.12 33.34 13.43 31.80Q10.73 30.27 9.17 27.34Q7.61 24.42 7.61 20.29L7.61 20.29Q7.61 16.13 9.17 13.20Q10.73 10.27 13.43 8.73Q16.12 7.19 19.48 7.19L19.48 7.19Q22.87 7.19 25.55 8.73Q28.23 10.27 29.80 13.20Q31.36 16.13 31.36 20.29L31.36 20.29Q31.36 24.42 29.80 27.34Q28.23 30.27 25.55 31.80Q22.87 33.34 19.48 33.34ZM19.48 28.71L19.48 28.71Q21.47 28.71 22.94 27.74Q24.42 26.78 25.24 24.89Q26.06 23.00 26.06 20.29L26.06 20.29Q26.06 17.53 25.24 15.65Q24.42 13.76 22.94 12.79Q21.47 11.83 19.48 11.83L19.48 11.83Q17.52 11.83 16.03 12.80Q14.54 13.77 13.72 15.66Q12.90 17.55 12.90 20.29L12.90 20.29Q12.90 23.00 13.72 24.88Q14.54 26.76 16.03 27.74Q17.52 28.71 19.48 28.71ZM38.01 40.14L32.88 40.14L32.88 13.89L37.92 13.89L37.92 17.11L38.16 17.11Q38.52 16.35 39.18 15.55Q39.84 14.75 40.91 14.20Q41.99 13.65 43.61 13.65L43.61 13.65Q45.73 13.65 47.49 14.75Q49.25 15.84 50.30 18.03Q51.35 20.22 51.35 23.48L51.35 23.48Q51.35 26.66 50.33 28.86Q49.30 31.05 47.54 32.19Q45.78 33.32 43.58 33.32L43.58 33.32Q42.02 33.32 40.95 32.79Q39.87 32.27 39.19 31.49Q38.52 30.71 38.16 29.94L38.16 29.94L38.01 29.94L38.01 40.14ZM42.01 29.21L42.01 29.21Q43.34 29.21 44.25 28.47Q45.17 27.74 45.64 26.44Q46.11 25.14 46.11 23.46L46.11 23.46Q46.11 21.79 45.64 20.51Q45.17 19.23 44.26 18.49Q43.36 17.76 42.01 17.76L42.01 17.76Q40.69 17.76 39.77 18.47Q38.84 19.17 38.37 20.45Q37.89 21.72 37.89 23.46L37.89 23.46Q37.89 25.19 38.37 26.48Q38.86 27.77 39.78 28.49Q40.71 29.21 42.01 29.21ZM61.30 33.38L61.30 33.38Q58.38 33.38 56.26 32.18Q54.14 30.98 53.00 28.78Q51.87 26.57 51.87 23.55L51.87 23.55Q51.87 20.59 52.99 18.37Q54.12 16.15 56.19 14.90Q58.26 13.65 61.04 13.65L61.04 13.65Q62.92 13.65 64.55 14.25Q66.17 14.85 67.40 16.06Q68.63 17.26 69.32 19.07Q70.01 20.88 70.01 23.34L70.01 23.34L70.01 24.78L53.97 24.78L53.97 21.57L67.50 21.57L65.11 22.42Q65.11 20.93 64.66 19.83Q64.20 18.73 63.31 18.12Q62.41 17.52 61.08 17.52L61.08 17.52Q59.76 17.52 58.83 18.13Q57.90 18.75 57.42 19.80Q56.94 20.85 56.94 22.20L56.94 22.20L56.94 24.47Q56.94 26.13 57.50 27.26Q58.05 28.39 59.05 28.95Q60.05 29.51 61.38 29.51L61.38 29.51Q62.29 29.51 63.02 29.26Q63.76 29.00 64.28 28.50Q64.80 27.99 65.08 27.26L65.08 27.26L69.72 28.13Q69.26 29.70 68.12 30.89Q66.97 32.08 65.25 32.73Q63.54 33.38 61.30 33.38ZM76.37 21.94L76.37 21.94L76.37 33L71.24 33L71.24 13.89L76.08 13.89L76.16 18.66L75.86 18.66Q76.61 16.27 78.14 14.96Q79.67 13.65 82.09 13.65L82.09 13.65Q84.08 13.65 85.55 14.52Q87.02 15.38 87.84 17.00Q88.66 18.61 88.66 20.85L88.66 20.85L88.66 33L83.53 33L83.53 21.74Q83.53 19.96 82.62 18.95Q81.70 17.94 80.08 17.94L80.08 17.94Q79.00 17.94 78.16 18.41Q77.31 18.88 76.84 19.77Q76.37 20.66 76.37 21.94ZM102.00 33.34L102.00 33.34Q98.62 33.34 95.94 31.80Q93.27 30.27 91.72 27.34Q90.18 24.42 90.18 20.29L90.18 20.29Q90.18 16.13 91.73 13.20Q93.29 10.27 95.97 8.73Q98.65 7.19 102.00 7.19L102.00 7.19Q104.17 7.19 106.04 7.80Q107.92 8.41 109.37 9.57Q110.82 10.73 111.74 12.42Q112.67 14.10 112.96 16.23L112.96 16.23L107.68 16.23Q107.51 15.19 107.02 14.38Q106.53 13.57 105.81 13.00Q105.08 12.42 104.14 12.12Q103.20 11.83 102.11 11.83L102.11 11.83Q100.12 11.83 98.62 12.82Q97.11 13.81 96.29 15.70Q95.47 17.58 95.47 20.29L95.47 20.29Q95.47 23.04 96.31 24.92Q97.15 26.80 98.64 27.75Q100.12 28.71 102.09 28.71L102.09 28.71Q103.18 28.71 104.11 28.41Q105.04 28.11 105.79 27.54Q106.53 26.97 107.02 26.15Q107.51 25.33 107.69 24.30L107.69 24.30L112.97 24.30Q112.77 26.06 111.92 27.69Q111.08 29.31 109.68 30.59Q108.27 31.87 106.34 32.61Q104.41 33.34 102.00 33.34ZM122.92 33.38L122.92 33.38Q120.05 33.38 117.95 32.14Q115.84 30.90 114.71 28.68Q113.57 26.47 113.57 23.53L113.57 23.53Q113.57 20.56 114.71 18.35Q115.84 16.13 117.95 14.89Q120.05 13.65 122.92 13.65L122.92 13.65Q125.81 13.65 127.90 14.89Q129.99 16.13 131.13 18.35Q132.27 20.56 132.27 23.53L132.27 23.53Q132.27 26.47 131.13 28.68Q129.99 30.90 127.90 32.14Q125.81 33.38 122.92 33.38ZM122.92 29.34L122.92 29.34Q124.29 29.34 125.21 28.58Q126.13 27.82 126.59 26.50Q127.05 25.17 127.05 23.52L127.05 23.52Q127.05 21.82 126.59 20.51Q126.13 19.19 125.21 18.44Q124.29 17.69 122.92 17.69L122.92 17.69Q121.55 17.69 120.64 18.44Q119.72 19.19 119.26 20.51Q118.80 21.82 118.80 23.52L118.80 23.52Q118.80 25.17 119.26 26.50Q119.72 27.82 120.64 28.58Q121.55 29.34 122.92 29.34ZM138.69 40.14L133.56 40.14L133.56 13.89L138.60 13.89L138.60 17.11L138.84 17.11Q139.20 16.35 139.86 15.55Q140.52 14.75 141.60 14.20Q142.67 13.65 144.30 13.65L144.30 13.65Q146.41 13.65 148.18 14.75Q149.94 15.84 150.99 18.03Q152.04 20.22 152.04 23.48L152.04 23.48Q152.04 26.66 151.01 28.86Q149.99 31.05 148.23 32.19Q146.47 33.32 144.26 33.32L144.26 33.32Q142.71 33.32 141.63 32.79Q140.55 32.27 139.88 31.49Q139.20 30.71 138.84 29.94L138.84 29.94L138.69 29.94L138.69 40.14ZM142.69 29.21L142.69 29.21Q144.02 29.21 144.94 28.47Q145.85 27.74 146.32 26.44Q146.79 25.14 146.79 23.46L146.79 23.46Q146.79 21.79 146.32 20.51Q145.85 19.23 144.95 18.49Q144.04 17.76 142.69 17.76L142.69 17.76Q141.37 17.76 140.45 18.47Q139.53 19.17 139.05 20.45Q138.57 21.72 138.57 23.46L138.57 23.46Q138.57 25.19 139.06 26.48Q139.54 27.77 140.47 28.49Q141.39 29.21 142.69 29.21ZM153.21 39.77L153.21 39.77L154.39 35.91L155.03 36.06Q156.05 36.33 156.85 36.21Q157.66 36.09 158.15 35.56Q158.63 35.03 158.73 34.08L158.73 34.08L158.87 33.05L151.69 13.89L157.15 13.89L160.36 23.81Q160.94 25.69 161.31 27.57Q161.67 29.45 162.15 31.50L162.15 31.50L160.96 31.50Q161.42 29.45 161.88 27.56Q162.34 25.67 162.96 23.81L162.96 23.81L166.31 13.89L171.69 13.89L163.57 35.26Q162.99 36.79 162.08 37.92Q161.18 39.05 159.83 39.67Q158.48 40.28 156.56 40.28L156.56 40.28Q155.54 40.28 154.65 40.14Q153.76 39.99 153.21 39.77Z" fill="#111111"></path></g>
        <defs xmlns="http://www.w3.org/2000/svg">
<linearGradient gradientUnits="userSpaceOnUse" y2="10.81" x2="10.0551" y1="10.81" x1="50.0552" id="paint0_linear_5557_2010">
<stop stop-color="#00AAFF"></stop>
<stop stop-color="#394F87" offset="1"></stop>
</linearGradient>
<linearGradient gradientUnits="userSpaceOnUse" y2="30.81" x2="40.0563" y1="30.81" x1="0.0561537" id="paint1_linear_5557_2010">
<stop stop-color="#FFFB80"></stop>
<stop stop-color="#FFEC1F" offset="1"></stop>
</linearGradient>
</defs>
      </svg>